<svg width="40" height="41" viewBox="0 0 40 41" fill="none" xmlns="http://www.w3.org/2000/svg">
<path d="M10.6662 0.889404C9.78403 0.889404 9.06615 1.61697 9.06615 2.51103V10.9021L1.0306 15.9981C-0.00217986 16.7301 -0.306227 18.1514 0.335799 19.2509L8.61682 34.7269C8.63953 34.766 8.67157 34.7986 8.71 34.8219C8.74844 34.8451 8.79202 34.8582 8.83674 34.8598C8.88146 34.8615 8.92588 34.8518 8.96591 34.8315C9.00593 34.8112 9.04028 34.781 9.06578 34.7438L9.06615 35.0656V38.1867C9.06615 39.677 10.2624 40.8894 11.7329 40.8894H37.3333C38.8037 40.8894 40 39.677 40 38.1867V2.51103C40 1.61697 39.2821 0.889404 38.4 0.889404H10.6662ZM10.6662 1.97049H38.4C38.6938 1.97049 38.9333 2.21265 38.9333 2.51103V10.0786H35.9999C35.9646 10.0781 35.9295 10.0847 35.8967 10.0981C35.8639 10.1114 35.8341 10.1312 35.8089 10.1564C35.7837 10.1815 35.7638 10.2115 35.7501 10.2445C35.7365 10.2776 35.7295 10.313 35.7295 10.3489C35.7295 10.3847 35.7365 10.4201 35.7501 10.4532C35.7638 10.4862 35.7837 10.5162 35.8089 10.5413C35.8341 10.5665 35.8639 10.5863 35.8967 10.5997C35.9295 10.613 35.9646 10.6196 35.9999 10.6191H38.9333V13.2669L37.4812 12.2862C37.4374 12.2566 37.3859 12.2408 37.3333 12.2408C37.2806 12.2408 37.2292 12.2566 37.1854 12.2862L35.7333 13.2669L34.2812 12.2862C34.2374 12.2566 34.1859 12.2408 34.1332 12.2408C34.0806 12.2408 34.0291 12.2566 33.9853 12.2862L32.5332 13.2669L31.0811 12.2862C31.0373 12.2566 30.9858 12.2408 30.9332 12.2408C30.8805 12.2408 30.8291 12.2566 30.7853 12.2862L29.3332 13.2669L27.881 12.2862C27.8372 12.2566 27.7858 12.2408 27.7331 12.2408C27.6805 12.2408 27.629 12.2566 27.5852 12.2862L26.1331 13.2669L24.681 12.2862C24.6372 12.2566 24.5857 12.2408 24.5331 12.2408C24.4804 12.2408 24.429 12.2566 24.3852 12.2862L22.933 13.2669L22.5893 13.0347L23.9518 11.0435C23.9847 10.9957 24.0014 10.9385 23.9995 10.8803C23.9976 10.8221 23.9772 10.766 23.9414 10.7205L23.8612 10.6191H32.2665C32.3019 10.6196 32.337 10.613 32.3698 10.5997C32.4025 10.5863 32.4324 10.5665 32.4576 10.5413C32.4827 10.5162 32.5027 10.4862 32.5163 10.4532C32.53 10.4201 32.537 10.3847 32.537 10.3489C32.537 10.313 32.53 10.2776 32.5163 10.2445C32.5027 10.2115 32.4827 10.1815 32.4576 10.1564C32.4324 10.1312 32.4025 10.1114 32.3698 10.0981C32.337 10.0847 32.3019 10.0781 32.2665 10.0786H23.4341L22.9601 9.47787L23.456 7.72006C23.4748 7.65315 23.4674 7.58146 23.4354 7.51991C23.4034 7.45835 23.3492 7.41169 23.2841 7.38962L21.8674 6.91136V5.484C21.8674 5.41232 21.8393 5.34358 21.7893 5.2929C21.7393 5.24221 21.6715 5.21374 21.6007 5.21373H20.1934L19.7205 3.77686C19.7021 3.72074 19.6661 3.67228 19.6179 3.63891C19.5697 3.60554 19.5121 3.5891 19.4538 3.59211C19.4037 3.59467 19.3553 3.6115 19.3142 3.64067L17.2736 5.08704C16.9456 4.54016 16.4075 4.13265 15.7329 4.13265C14.7051 4.13265 13.8662 4.98283 13.8662 6.02454C13.8662 6.47254 14.0518 6.86097 14.31 7.18586L10.1328 10.1462V2.51103C10.1328 2.21265 10.3723 1.97049 10.6662 1.97049ZM33.3332 4.13265C32.7332 4.13265 32.2498 4.37042 31.9342 4.7302C31.6187 5.08998 31.4665 5.55907 31.4665 6.02454C31.4665 6.49 31.6187 6.9591 31.9342 7.31888C32.2498 7.67866 32.7332 7.91643 33.3332 7.91643C33.9332 7.91643 34.4167 7.67866 34.7322 7.31888C35.0477 6.9591 35.1999 6.49 35.1999 6.02454C35.1999 5.55907 35.0477 5.08998 34.7322 4.7302C34.4167 4.37042 33.9332 4.13265 33.3332 4.13265ZM19.3278 4.29206L19.7476 5.56951C19.7653 5.62334 19.7993 5.67015 19.8447 5.70331C19.8901 5.73647 19.9447 5.7543 20.0007 5.75427H21.3341V7.10562C21.334 7.16236 21.3516 7.21768 21.3843 7.26372C21.4171 7.30977 21.4632 7.34421 21.5164 7.36217L22.8737 7.82036L22.4101 9.46415C22.3984 9.50557 22.3967 9.54921 22.405 9.59145C22.4134 9.63369 22.4315 9.6733 22.458 9.70697L23.0726 10.4851C23.0856 10.5077 23.1017 10.5283 23.1206 10.5463L23.4008 10.901L9.35366 33.6322L0.795182 18.9753C0.292655 18.1148 0.527501 17.0144 1.33582 16.4416L19.3278 4.29206ZM15.7329 4.67319C16.2309 4.67319 16.6267 4.97557 16.8559 5.38265L14.7746 6.85752C14.5779 6.62246 14.3996 6.35866 14.3996 6.02454C14.3996 5.2749 14.9933 4.67319 15.7329 4.67319ZM33.3332 4.67319C33.7999 4.67319 34.1165 4.84082 34.3343 5.08915C34.5521 5.33748 34.6666 5.67919 34.6666 6.02454C34.6666 6.36988 34.5521 6.7116 34.3343 6.95993C34.1165 7.20826 33.7999 7.37589 33.3332 7.37589C32.8665 7.37589 32.55 7.20826 32.3322 6.95993C32.1144 6.7116 31.9999 6.36988 31.9999 6.02454C31.9999 5.67919 32.1144 5.33748 32.3322 5.08915C32.55 4.84082 32.8665 4.67319 33.3332 4.67319ZM33.8666 10.0786C33.8312 10.0781 33.7961 10.0847 33.7634 10.0981C33.7306 10.1114 33.7007 10.1312 33.6755 10.1564C33.6504 10.1815 33.6304 10.2115 33.6168 10.2445C33.6031 10.2776 33.5961 10.313 33.5961 10.3489C33.5961 10.3847 33.6031 10.4201 33.6168 10.4532C33.6304 10.4862 33.6504 10.5162 33.6755 10.5413C33.7007 10.5665 33.7306 10.5863 33.7634 10.5997C33.7961 10.613 33.8312 10.6196 33.8666 10.6191H34.3999C34.4352 10.6196 34.4703 10.613 34.5031 10.5997C34.5359 10.5863 34.5658 10.5665 34.5909 10.5413C34.6161 10.5162 34.6361 10.4862 34.6497 10.4532C34.6634 10.4201 34.6704 10.3847 34.6704 10.3489C34.6704 10.313 34.6634 10.2776 34.6497 10.2445C34.6361 10.2115 34.6161 10.1815 34.5909 10.1564C34.5658 10.1312 34.5359 10.1114 34.5031 10.0981C34.4703 10.0847 34.4352 10.0781 34.3999 10.0786H33.8666ZM24.5331 12.8362L25.9852 13.817C26.029 13.8466 26.0805 13.8624 26.1331 13.8624C26.1857 13.8624 26.2372 13.8466 26.281 13.817L27.7331 12.8362L29.1852 13.817C29.229 13.8466 29.2805 13.8624 29.3332 13.8624C29.3858 13.8624 29.4373 13.8466 29.4811 13.817L30.9332 12.8362L32.3853 13.817C32.4291 13.8466 32.4806 13.8624 32.5332 13.8624C32.5859 13.8624 32.6373 13.8466 32.6811 13.817L34.1332 12.8362L35.5853 13.817C35.6291 13.8466 35.6806 13.8624 35.7333 13.8624C35.7859 13.8624 35.8374 13.8466 35.8812 13.817L37.3333 12.8362L38.7854 13.817C38.8292 13.8466 38.8807 13.8624 38.9333 13.8624V38.1867C38.9333 39.0808 38.2154 39.8083 37.3333 39.8083H11.7329C10.8507 39.8083 10.1328 39.0808 10.1328 38.1867V33.5073L22.2851 13.4791L22.7851 13.817C22.8289 13.8466 22.8804 13.8624 22.933 13.8624C22.9857 13.8624 23.0372 13.8466 23.081 13.817L24.5331 12.8362ZM25.0873 16.5651C24.9219 16.5651 24.7762 16.6538 24.6466 16.8311C24.6466 16.8311 23.1192 18.966 23.0872 19.0049C22.9843 19.1314 22.933 19.2705 22.933 19.424C22.933 19.5662 22.9768 19.6883 23.0653 19.7883C23.1533 19.8888 23.2628 19.9382 23.3924 19.9382C23.522 19.9382 23.6335 19.8681 23.7279 19.726L24.4341 18.572V28.5362C24.4341 28.6778 24.4898 28.7902 24.6018 28.8729C24.7133 28.9562 24.8516 28.9975 25.0164 28.9975C25.1695 28.9975 25.3058 28.9562 25.4237 28.8729C25.5416 28.7902 25.5998 28.6778 25.5998 28.5362V17.0085C25.5998 16.8782 25.5465 16.7724 25.4404 16.6897C25.3342 16.607 25.2169 16.5651 25.0873 16.5651ZM14.6662 31.7002C14.6309 31.6997 14.5958 31.7063 14.563 31.7197C14.5302 31.733 14.5004 31.7529 14.4752 31.778C14.4501 31.8032 14.4301 31.8331 14.4164 31.8662C14.4028 31.8992 14.3958 31.9347 14.3958 31.9705C14.3958 32.0063 14.4028 32.0418 14.4164 32.0748C14.4301 32.1078 14.4501 32.1378 14.4752 32.163C14.5004 32.1881 14.5302 32.2079 14.563 32.2213C14.5958 32.2346 14.6309 32.2413 14.6662 32.2408H27.4665C27.5018 32.2413 27.5369 32.2346 27.5697 32.2213C27.6025 32.2079 27.6323 32.1881 27.6575 32.163C27.6826 32.1378 27.7026 32.1078 27.7163 32.0748C27.7299 32.0418 27.7369 32.0063 27.7369 31.9705C27.7369 31.9347 27.7299 31.8992 27.7163 31.8662C27.7026 31.8331 27.6826 31.8032 27.6575 31.778C27.6323 31.7529 27.6025 31.733 27.5697 31.7197C27.5369 31.7063 27.5018 31.6997 27.4665 31.7002H14.6662ZM29.0665 31.7002C29.0311 31.6997 28.9961 31.7063 28.9633 31.7197C28.9305 31.733 28.9006 31.7529 28.8755 31.778C28.8503 31.8032 28.8303 31.8331 28.8167 31.8662C28.803 31.8992 28.796 31.9347 28.796 31.9705C28.796 32.0063 28.803 32.0418 28.8167 32.0748C28.8303 32.1078 28.8503 32.1378 28.8755 32.163C28.9006 32.1881 28.9305 32.2079 28.9633 32.2213C28.9961 32.2346 29.0311 32.2413 29.0665 32.2408H34.3499C34.3852 32.2413 34.4203 32.2346 34.4531 32.2213C34.4859 32.2079 34.5158 32.1881 34.5409 32.163C34.5661 32.1378 34.5861 32.1078 34.5997 32.0748C34.6134 32.0418 34.6204 32.0063 34.6204 31.9705C34.6204 31.9347 34.6134 31.8992 34.5997 31.8662C34.5861 31.8331 34.5661 31.8032 34.5409 31.778C34.5158 31.7529 34.4859 31.733 34.4531 31.7197C34.4203 31.7063 34.3852 31.6997 34.3499 31.7002H29.0665ZM18.3996 34.4029C18.3643 34.4024 18.3292 34.409 18.2964 34.4224C18.2636 34.4357 18.2338 34.4556 18.2086 34.4807C18.1835 34.5059 18.1635 34.5358 18.1498 34.5689C18.1362 34.6019 18.1292 34.6374 18.1292 34.6732C18.1292 34.709 18.1362 34.7445 18.1498 34.7775C18.1635 34.8106 18.1835 34.8405 18.2086 34.8657C18.2338 34.8908 18.2636 34.9106 18.2964 34.924C18.3292 34.9373 18.3643 34.944 18.3996 34.9435H30.6665C30.7018 34.944 30.7369 34.9373 30.7697 34.924C30.8025 34.9106 30.8324 34.8908 30.8575 34.8657C30.8827 34.8405 30.9027 34.8106 30.9163 34.7775C30.93 34.7445 30.937 34.709 30.937 34.6732C30.937 34.6374 30.93 34.6019 30.9163 34.5689C30.9027 34.5358 30.8827 34.5059 30.8575 34.4807C30.8324 34.4556 30.8025 34.4357 30.7697 34.4224C30.7369 34.409 30.7018 34.4024 30.6665 34.4029H18.3996Z" fill="white"/>
</svg>
