<svg width="40" height="54" viewBox="0 0 40 54" fill="none" xmlns="http://www.w3.org/2000/svg">
<path d="M20 0C8.96256 0 0 8.91548 0 19.8949C0 25.9789 4.92236 34.2944 9.76981 41.2595C14.6173 48.2246 19.4615 53.7563 19.4615 53.7563C19.5285 53.8328 19.6113 53.8942 19.7042 53.9362C19.7971 53.9783 19.898 54 20 54C20.1021 54 20.2029 53.9783 20.2958 53.9362C20.3887 53.8942 20.4715 53.8328 20.5385 53.7563C20.5385 53.7563 25.3827 48.2246 30.2302 41.2595C35.0776 34.2944 40 25.9789 40 19.8949C40 8.91548 31.0374 0 20 0ZM20 1.42107C30.2654 1.42107 38.5714 9.68345 38.5714 19.8949C38.5714 25.1795 33.8509 33.5615 29.0555 40.4518C24.6906 46.7236 20.7491 51.311 20 52.177C19.2509 51.311 15.3094 46.7236 10.9445 40.4518C6.14907 33.5615 1.42857 25.1795 1.42857 19.8949C1.42857 9.68345 9.73458 1.42107 20 1.42107ZM20 4.97374C11.7198 4.97374 5 11.6583 5 19.8949C5 28.1316 11.7198 34.8162 20 34.8162C28.1567 34.8162 34.7859 28.3263 34.9819 20.2585C34.983 20.2119 34.9748 20.1654 34.9579 20.1219C34.941 20.0784 34.9156 20.0386 34.8832 20.0048C34.8508 19.971 34.8121 19.9439 34.7692 19.9251C34.7262 19.9062 34.68 19.8959 34.6331 19.8948C34.5862 19.8937 34.5395 19.9018 34.4958 19.9187C34.452 19.9356 34.412 19.9608 34.3781 19.993C34.3441 20.0253 34.3169 20.0638 34.2979 20.1065C34.279 20.1492 34.2687 20.1952 34.2676 20.2419C34.1587 24.7222 31.9645 28.6768 28.6217 31.2066C28.1365 30.2543 27.3115 29.4943 26.2807 29.0944C26.2683 29.0894 26.2557 29.0848 26.243 29.0805L23.3719 28.1452C23.3701 28.1447 23.0281 27.9775 22.9255 27.5498C23.4222 27.2377 23.9483 26.9072 24.4587 26.3342C25.0778 25.639 25.59 24.743 25.6627 23.7182C26.0516 23.4641 26.3631 23.1315 26.483 22.7523C26.5426 22.5682 26.6934 22.0694 26.8387 21.5686C26.9117 21.317 26.9807 21.0705 27.034 20.8719C27.0607 20.7726 27.0834 20.6861 27.101 20.611C27.1186 20.5359 27.1429 20.5665 27.1429 20.3265C27.1429 19.93 26.9717 19.5143 26.7494 19.3024C26.749 19.3019 26.7485 19.3014 26.748 19.301C26.6602 19.2176 26.6902 19.251 26.6811 19.2441C26.672 19.2371 26.6639 19.2302 26.6546 19.2233C26.6359 19.2094 26.6127 19.194 26.5862 19.1747C26.5416 19.1422 26.4848 19.1002 26.4286 19.0595V17.0528C26.4286 13.5296 23.5418 10.658 20 10.658C16.4582 10.658 13.5714 13.5296 13.5714 17.0528V19.0595C13.5152 19.1002 13.4584 19.1421 13.4138 19.1747C13.3873 19.194 13.3641 19.2094 13.3454 19.2233C13.3361 19.2302 13.328 19.2371 13.3189 19.2441C13.3098 19.251 13.3398 19.2176 13.252 19.301C13.0268 19.5148 12.8571 19.9305 12.8571 20.3265C12.8571 20.5665 12.8814 20.5359 12.899 20.611C12.9166 20.6861 12.9393 20.7726 12.966 20.8719C13.0193 21.0705 13.0883 21.317 13.1613 21.5686C13.3066 22.0694 13.4574 22.5682 13.517 22.7523C13.6371 23.132 13.9489 23.4643 14.3373 23.7182C14.41 24.7428 14.9222 25.6377 15.5413 26.3328C16.0518 26.9059 16.578 27.2375 17.0745 27.5498C16.9719 27.9775 16.6299 28.1447 16.6281 28.1452H16.6267L13.757 29.0805C13.7443 29.0848 13.7317 29.0894 13.7193 29.0944C12.6875 29.4949 11.8623 30.2561 11.377 31.2094C7.94117 28.615 5.71429 24.5202 5.71429 19.8949C5.71429 12.0423 12.1059 5.68427 20 5.68427C22.3936 5.68427 24.6417 6.27564 26.6197 7.31211C26.6614 7.33583 26.7074 7.35096 26.755 7.35659C26.8027 7.36222 26.851 7.35824 26.8971 7.34488C26.9432 7.33152 26.9861 7.30906 27.0232 7.27885C27.0604 7.24863 27.091 7.21128 27.1133 7.16902C27.1357 7.12675 27.1492 7.08045 27.1531 7.03287C27.1571 6.98529 27.1513 6.93741 27.1362 6.89209C27.1211 6.84676 27.097 6.80493 27.0653 6.76909C27.0336 6.73324 26.995 6.70412 26.9517 6.68346C24.8754 5.59544 22.5121 4.97374 20 4.97374ZM28.6482 7.8131C28.574 7.81654 28.5028 7.84288 28.4444 7.88845C28.3859 7.93403 28.3433 7.99658 28.3222 8.0674C28.3012 8.13822 28.3029 8.2138 28.3271 8.28363C28.3512 8.35346 28.3966 8.41406 28.457 8.45702C29.529 9.24601 30.4868 10.1794 31.3002 11.2298C31.3277 11.2697 31.363 11.3036 31.4041 11.3294C31.4452 11.3552 31.4911 11.3724 31.5391 11.38C31.5871 11.3876 31.6361 11.3853 31.6832 11.3734C31.7303 11.3614 31.7745 11.34 31.813 11.3105C31.8514 11.281 31.8835 11.244 31.9071 11.2018C31.9307 11.1596 31.9454 11.113 31.9503 11.0649C31.9552 11.0168 31.9502 10.9682 31.9356 10.9221C31.9209 10.876 31.897 10.8334 31.8652 10.7968C31.0115 9.69425 30.0077 8.71344 28.8825 7.88526C28.8154 7.83443 28.7324 7.80887 28.6482 7.8131ZM20 12.0791C22.7696 12.0791 25 14.2977 25 17.0528V19.4217C25 19.5341 25.0268 19.645 25.0782 19.7451C25.1296 19.8452 25.2042 19.9318 25.2958 19.9976C25.2958 19.9976 25.4257 20.092 25.558 20.1878C25.6122 20.2269 25.662 20.263 25.7073 20.296C25.6955 20.3457 25.6778 20.4181 25.6543 20.5056C25.6054 20.6876 25.5374 20.9282 25.466 21.1745C25.323 21.6669 25.1609 22.2001 25.1214 22.3221C25.1209 22.3235 25.1204 22.3249 25.12 22.3263C25.0702 22.4838 25.0266 22.5645 24.7935 22.6344C24.6467 22.6785 24.5181 22.7684 24.4266 22.8909C24.3352 23.0133 24.2858 23.1618 24.2857 23.3144V23.5073C24.2857 24.1029 23.9182 24.796 23.3887 25.3905C22.8591 25.985 22.1771 26.4691 21.822 26.6464C21.7038 26.7055 21.6045 26.7961 21.535 26.9081C21.4655 27.0201 21.4287 27.149 21.4286 27.2806V27.3889C21.4286 28.8758 22.8613 29.4733 22.8613 29.4733C22.8724 29.4772 22.8836 29.4809 22.8948 29.4844L25.7631 30.4197C26.526 30.7162 27.107 31.3029 27.4177 32.0226C25.2555 33.3359 22.7223 34.1056 20 34.1056C17.2795 34.1056 14.7472 33.3365 12.5837 32.0254C12.8946 31.3043 13.4737 30.7166 14.2369 30.4197L14.2383 30.4183L17.1052 29.4844C17.1164 29.4809 17.1276 29.4772 17.1387 29.4733C17.1387 29.4733 18.5714 28.8758 18.5714 27.3889V27.2806C18.5713 27.149 18.5345 27.0201 18.465 26.9081C18.3955 26.7961 18.2962 26.7055 18.178 26.6464C17.8226 26.4687 17.1409 25.985 16.6113 25.3905C16.0817 24.7959 15.7143 24.1024 15.7143 23.5073V23.3144C15.7142 23.1618 15.6648 23.0133 15.5734 22.8909C15.4819 22.7684 15.3533 22.6785 15.2065 22.6344C14.9741 22.5646 14.9296 22.483 14.88 22.3263C14.8796 22.3249 14.8791 22.3235 14.8786 22.3221C14.8391 22.2001 14.677 21.6669 14.534 21.1745C14.4626 20.9282 14.3946 20.6876 14.3457 20.5056C14.3222 20.4181 14.3045 20.3457 14.2927 20.296C14.338 20.263 14.3878 20.2269 14.442 20.1878C14.5743 20.092 14.7042 19.9976 14.7042 19.9976C14.7958 19.9318 14.8704 19.8452 14.9218 19.7451C14.9732 19.645 15 19.5341 15 19.4217V17.0528C15 14.2977 17.2304 12.0791 20 12.0791ZM32.9632 12.7854C32.9012 12.7852 32.8402 12.8011 32.7862 12.8314C32.7323 12.8617 32.6872 12.9055 32.6553 12.9584C32.6235 13.0113 32.6061 13.0716 32.6048 13.1332C32.6035 13.1949 32.6183 13.2558 32.6479 13.31C32.9979 13.9745 33.2984 14.6685 33.5407 15.3889C33.5537 15.4354 33.576 15.4788 33.6063 15.5164C33.6366 15.554 33.6743 15.5851 33.7171 15.6078C33.7599 15.6305 33.8069 15.6443 33.8552 15.6483C33.9035 15.6523 33.9522 15.6465 33.9982 15.6312C34.0442 15.6159 34.0865 15.5915 34.1227 15.5594C34.1589 15.5273 34.1882 15.4882 34.2087 15.4445C34.2292 15.4008 34.2405 15.3534 34.242 15.3052C34.2435 15.257 34.2351 15.2089 34.2174 15.1641C33.9625 14.4065 33.6483 13.6766 33.2812 12.9797C33.2514 12.9213 33.2059 12.8723 33.1498 12.838C33.0936 12.8037 33.029 12.7855 32.9632 12.7854ZM14.2885 20.2988C14.2864 20.2587 14.2857 20.1803 14.2857 20.3265C14.2857 20.3035 14.2828 20.3148 14.2815 20.3043C14.284 20.3026 14.2863 20.3004 14.2885 20.2988ZM25.7115 20.2988C25.7137 20.3004 25.716 20.3026 25.7185 20.3043C25.7173 20.315 25.7143 20.3034 25.7143 20.3265C25.7143 20.1803 25.7136 20.2588 25.7115 20.2988Z" fill="white"/>
</svg>
