<svg width="40" height="55" viewBox="0 0 40 55" fill="none" xmlns="http://www.w3.org/2000/svg">
<path d="M20 0.889404C8.96256 0.889404 0 9.80489 0 20.7843C0 26.8683 4.92236 35.1838 9.76981 42.1489C14.6173 49.114 19.4615 54.6457 19.4615 54.6457C19.5285 54.7222 19.6113 54.7836 19.7042 54.8256C19.7971 54.8677 19.898 54.8894 20 54.8894C20.1021 54.8894 20.2029 54.8677 20.2958 54.8256C20.3887 54.7836 20.4715 54.7222 20.5385 54.6457C20.5385 54.6457 25.3827 49.114 30.2302 42.1489C35.0776 35.1838 40 26.8683 40 20.7843C40 9.80489 31.0374 0.889404 20 0.889404ZM20 2.31047C30.2654 2.31047 38.5714 10.5729 38.5714 20.7843C38.5714 26.0689 33.8509 34.4509 29.0555 41.3413C24.6906 47.613 20.7491 52.2004 20 53.0664C19.2509 52.2004 15.3094 47.613 10.9445 41.3413C6.14907 34.4509 1.42857 26.0689 1.42857 20.7843C1.42857 10.5729 9.73458 2.31047 20 2.31047ZM20 5.86314C11.7198 5.86314 5 12.5477 5 20.7843C5 29.021 11.7198 35.7056 20 35.7056C28.1567 35.7056 34.7859 29.2157 34.9819 21.1479C34.983 21.1013 34.9748 21.0549 34.9579 21.0113C34.941 20.9678 34.9156 20.928 34.8832 20.8942C34.8508 20.8604 34.8121 20.8333 34.7692 20.8145C34.7262 20.7956 34.68 20.7853 34.6331 20.7842C34.5862 20.7831 34.5395 20.7913 34.4958 20.8081C34.452 20.825 34.412 20.8502 34.3781 20.8824C34.3441 20.9147 34.3169 20.9532 34.2979 20.9959C34.279 21.0386 34.2687 21.0846 34.2676 21.1313C34.1587 25.6116 31.9645 29.5662 28.6217 32.096C28.1365 31.1437 27.3115 30.3837 26.2807 29.9838C26.2683 29.9788 26.2557 29.9742 26.243 29.9699L23.3719 29.0346C23.3701 29.0341 23.0281 28.8669 22.9255 28.4392C23.4222 28.1271 23.9483 27.7966 24.4587 27.2236C25.0778 26.5284 25.59 25.6324 25.6627 24.6076C26.0516 24.3535 26.3631 24.021 26.483 23.6417C26.5426 23.4576 26.6934 22.9588 26.8387 22.458C26.9117 22.2064 26.9807 21.9599 27.034 21.7613C27.0607 21.6621 27.0834 21.5756 27.101 21.5004C27.1186 21.4253 27.1429 21.4559 27.1429 21.2159C27.1429 20.8194 26.9717 20.4037 26.7494 20.1918C26.749 20.1913 26.7485 20.1908 26.748 20.1904C26.6602 20.107 26.6902 20.1404 26.6811 20.1335C26.672 20.1265 26.6639 20.1196 26.6546 20.1127C26.6359 20.0988 26.6127 20.0834 26.5862 20.0641C26.5416 20.0316 26.4848 19.9896 26.4286 19.9489V17.9422C26.4286 14.419 23.5418 11.5474 20 11.5474C16.4582 11.5474 13.5714 14.419 13.5714 17.9422V19.9489C13.5152 19.9896 13.4584 20.0315 13.4138 20.0641C13.3873 20.0834 13.3641 20.0988 13.3454 20.1127C13.3361 20.1196 13.328 20.1266 13.3189 20.1335C13.3098 20.1405 13.3398 20.107 13.252 20.1904C13.0268 20.4042 12.8571 20.8199 12.8571 21.2159C12.8571 21.4559 12.8814 21.4253 12.899 21.5004C12.9166 21.5756 12.9393 21.6621 12.966 21.7613C13.0193 21.9599 13.0883 22.2064 13.1613 22.458C13.3066 22.9588 13.4574 23.4576 13.517 23.6417C13.6371 24.0214 13.9489 24.3537 14.3373 24.6076C14.41 25.6322 14.9222 26.5271 15.5413 27.2222C16.0518 27.7953 16.578 28.1269 17.0745 28.4392C16.9719 28.8669 16.6299 29.0341 16.6281 29.0346H16.6267L13.757 29.9699C13.7443 29.9742 13.7317 29.9788 13.7193 29.9838C12.6875 30.3844 11.8623 31.1455 11.377 32.0988C7.94117 29.5044 5.71429 25.4096 5.71429 20.7843C5.71429 12.9317 12.1059 6.57367 20 6.57367C22.3936 6.57367 24.6417 7.16504 26.6197 8.20152C26.6614 8.22524 26.7074 8.24036 26.755 8.24599C26.8027 8.25162 26.851 8.24764 26.8971 8.23428C26.9432 8.22093 26.9861 8.19847 27.0232 8.16825C27.0604 8.13804 27.091 8.10068 27.1133 8.05842C27.1357 8.01616 27.1492 7.96985 27.1531 7.92227C27.1571 7.87469 27.1513 7.82681 27.1362 7.78149C27.1211 7.73617 27.097 7.69434 27.0653 7.65849C27.0336 7.62265 26.995 7.59352 26.9517 7.57286C24.8754 6.48484 22.5121 5.86314 20 5.86314ZM28.6482 8.7025C28.574 8.70594 28.5028 8.73228 28.4444 8.77786C28.3859 8.82343 28.3433 8.88598 28.3222 8.9568C28.3012 9.02763 28.3029 9.10321 28.3271 9.17303C28.3512 9.24286 28.3966 9.30346 28.457 9.34642C29.529 10.1354 30.4868 11.0688 31.3002 12.1192C31.3277 12.1591 31.363 12.193 31.4041 12.2188C31.4452 12.2446 31.4911 12.2618 31.5391 12.2694C31.5871 12.277 31.6361 12.2747 31.6832 12.2628C31.7303 12.2508 31.7745 12.2295 31.813 12.2C31.8514 12.1704 31.8835 12.1334 31.9071 12.0912C31.9307 12.049 31.9454 12.0024 31.9503 11.9543C31.9552 11.9062 31.9502 11.8576 31.9356 11.8115C31.9209 11.7654 31.897 11.7228 31.8652 11.6862C31.0115 10.5837 30.0077 9.60285 28.8825 8.77466C28.8154 8.72383 28.7324 8.69827 28.6482 8.7025ZM20 12.9685C22.7696 12.9685 25 15.1871 25 17.9422V20.3111C25 20.4235 25.0268 20.5344 25.0782 20.6345C25.1296 20.7346 25.2042 20.8212 25.2958 20.887C25.2958 20.887 25.4257 20.9814 25.558 21.0772C25.6122 21.1163 25.662 21.1524 25.7073 21.1854C25.6955 21.2351 25.6778 21.3075 25.6543 21.395C25.6054 21.577 25.5374 21.8176 25.466 22.0639C25.323 22.5563 25.1609 23.0895 25.1214 23.2115C25.1209 23.2129 25.1204 23.2143 25.12 23.2157C25.0702 23.3732 25.0266 23.4539 24.7935 23.5238C24.6467 23.5679 24.5181 23.6578 24.4266 23.7803C24.3352 23.9028 24.2858 24.0512 24.2857 24.2038V24.3967C24.2857 24.9923 23.9182 25.6854 23.3887 26.2799C22.8591 26.8744 22.1771 27.3585 21.822 27.5358C21.7038 27.5949 21.6045 27.6855 21.535 27.7975C21.4655 27.9095 21.4287 28.0384 21.4286 28.17V28.2783C21.4286 29.7652 22.8613 30.3627 22.8613 30.3627C22.8724 30.3666 22.8836 30.3703 22.8948 30.3738L25.7631 31.3091C26.526 31.6056 27.107 32.1923 27.4177 32.912C25.2555 34.2253 22.7223 34.995 20 34.995C17.2795 34.995 14.7472 34.2259 12.5837 32.9148C12.8946 32.1937 13.4737 31.606 14.2369 31.3091L14.2383 31.3077L17.1052 30.3738C17.1164 30.3703 17.1276 30.3666 17.1387 30.3627C17.1387 30.3627 18.5714 29.7652 18.5714 28.2783V28.17C18.5713 28.0384 18.5345 27.9095 18.465 27.7975C18.3955 27.6855 18.2962 27.5949 18.178 27.5358C17.8226 27.3581 17.1409 26.8745 16.6113 26.2799C16.0817 25.6853 15.7143 24.9918 15.7143 24.3967V24.2038C15.7142 24.0512 15.6648 23.9028 15.5734 23.7803C15.4819 23.6578 15.3533 23.5679 15.2065 23.5238C14.9741 23.454 14.9296 23.3724 14.88 23.2157C14.8796 23.2143 14.8791 23.2129 14.8786 23.2115C14.8391 23.0895 14.677 22.5563 14.534 22.0639C14.4626 21.8176 14.3946 21.577 14.3457 21.395C14.3222 21.3075 14.3045 21.2351 14.2927 21.1854C14.338 21.1524 14.3878 21.1163 14.442 21.0772C14.5743 20.9814 14.7042 20.887 14.7042 20.887C14.7958 20.8212 14.8704 20.7346 14.9218 20.6345C14.9732 20.5344 15 20.4235 15 20.3111V17.9422C15 15.1871 17.2304 12.9685 20 12.9685ZM32.9632 13.6748C32.9012 13.6746 32.8402 13.6905 32.7862 13.7208C32.7323 13.7511 32.6872 13.7949 32.6553 13.8478C32.6235 13.9007 32.6061 13.961 32.6048 14.0226C32.6035 14.0843 32.6183 14.1452 32.6479 14.1994C32.9979 14.864 33.2984 15.5579 33.5407 16.2783C33.5537 16.3248 33.576 16.3682 33.6063 16.4058C33.6366 16.4434 33.6743 16.4746 33.7171 16.4972C33.7599 16.5199 33.8069 16.5337 33.8552 16.5377C33.9035 16.5417 33.9522 16.5359 33.9982 16.5206C34.0442 16.5053 34.0865 16.4809 34.1227 16.4488C34.1589 16.4167 34.1882 16.3776 34.2087 16.3339C34.2292 16.2902 34.2405 16.2428 34.242 16.1946C34.2435 16.1464 34.2351 16.0984 34.2174 16.0535C33.9625 15.2959 33.6483 14.566 33.2812 13.8691C33.2514 13.8107 33.2059 13.7617 33.1498 13.7274C33.0936 13.6931 33.029 13.6749 32.9632 13.6748ZM14.2885 21.1882C14.2864 21.1482 14.2857 21.0697 14.2857 21.2159C14.2857 21.1929 14.2828 21.2042 14.2815 21.1937C14.284 21.192 14.2863 21.1898 14.2885 21.1882ZM25.7115 21.1882C25.7137 21.1898 25.716 21.192 25.7185 21.1937C25.7173 21.2044 25.7143 21.1929 25.7143 21.2159C25.7143 21.0697 25.7136 21.1482 25.7115 21.1882Z" fill="white"/>
</svg>
