<svg width="202" height="66" viewBox="0 0 202 66" fill="none" xmlns="http://www.w3.org/2000/svg">
<path d="M16.205 39.31H7.84V19.85H2.205V44H16.205V39.31ZM60.576 36.72C59.246 38.085 57.076 39.275 54.066 39.275C50.111 39.275 46.821 36.58 46.821 31.855C46.821 27.13 49.971 24.4 54.066 24.4C57.251 24.4 59.841 26.325 60.296 26.92L62.046 22.23C61.416 21.565 58.721 19.5 53.751 19.5C46.716 19.5 41.081 24.155 41.081 31.96C41.081 39.73 46.646 44.42 53.751 44.42C58.686 44.42 61.241 42.39 62.466 41.13L60.576 36.72ZM78.5796 19.815H72.6996L63.5996 44H69.4796L71.1946 39.135H79.8046L81.5196 44H87.6796L78.5796 19.815ZM72.4896 34.725L75.4996 26.045L78.5096 34.725H72.4896ZM103.734 39.31H95.3687V19.85H89.7337V44H103.734V39.31Z" fill="#22409A"/>
<path d="M133.24 19.85H127.57V29.195H117.875V19.85H112.205V44H117.875V33.885H127.57V44H133.24V19.85ZM152.895 39.415H142.57V33.815H152.02V29.3H142.57V24.365H152.58V19.85H136.935V44H152.895V39.415ZM168.668 34.025C170.453 33.465 173.393 31.68 173.393 27.095C173.393 24.68 172.343 22.755 170.733 21.565C169.158 20.41 167.058 19.85 164.363 19.85H155.683V44H161.353V34.76H163.138L168.213 44H174.793L168.668 34.025ZM167.688 27.305C167.688 28.565 167.198 29.23 166.463 29.755C165.763 30.28 164.853 30.42 163.558 30.42H161.318V24.225H163.558C164.853 24.225 165.763 24.33 166.463 24.855C167.198 25.38 167.688 26.08 167.688 27.305ZM200.364 31.96C200.364 24.155 194.729 19.465 187.554 19.465C180.379 19.465 174.744 24.155 174.744 31.96C174.744 39.765 180.379 44.42 187.554 44.42C194.729 44.42 200.364 39.765 200.364 31.96ZM194.624 31.82C194.624 36.44 191.579 39.38 187.554 39.38C183.529 39.38 180.484 36.44 180.484 31.82C180.484 27.2 183.529 24.295 187.554 24.295C191.579 24.295 194.624 27.235 194.624 31.82Z" fill="#22409A"/>
<rect x="41.1784" y="39.314" width="4.68412" height="23" transform="rotate(90 41.1784 39.314)" fill="#363535"/>
<line x1="41.4284" y1="41.5" x2="39.3849" y2="41.5" stroke="#E5E5E5"/>
<line x1="29.1675" y1="41.5" x2="25.0806" y2="41.5" stroke="#E5E5E5"/>
<line x1="36.3197" y1="41.5" x2="32.2327" y2="41.5" stroke="#E5E5E5"/>
<line x1="22.0154" y1="41.5" x2="17.9284" y2="41.5" stroke="#E5E5E5"/>
<path d="M29.6711 19.353C34.8824 19.353 39.1785 23.5083 39.1785 28.6493C39.1785 31.24 38.2363 33.6451 36.6856 35.6836C34.9748 37.9322 32.8662 39.8914 30.4927 41.4293C29.9495 41.7847 29.4593 41.8115 28.8631 41.4293C26.4761 39.8914 24.3675 37.9322 22.6714 35.6836C21.1195 33.6451 20.1785 31.24 20.1785 28.6493C20.1785 23.5083 24.4746 19.353 29.6711 19.353ZM29.6711 25.8095C27.948 25.8095 26.5426 27.23 26.5426 28.9388C26.5426 30.661 27.948 32.0156 29.6711 32.0156C31.3954 32.0156 32.8143 30.661 32.8143 28.9388C32.8143 27.23 31.3954 25.8095 29.6711 25.8095Z" fill="#FF6B6B"/>
</svg>
