<svg width="373" height="278" viewBox="0 0 373 278" fill="none" xmlns="http://www.w3.org/2000/svg">
<path d="M106.112 77.4633C48.8984 110.817 45.476 223.429 126.855 221.274C163.244 220.308 173.876 182.191 206.716 168.814C237.547 156.247 264.13 181.448 295.252 152.91C331.923 119.319 337.191 37.1612 282.685 31.6691C258.952 29.2761 249.801 52.9461 229.065 58.1854C187.029 68.8128 148.624 52.6934 106.112 77.4633Z" fill="#788AC1"/>
<path opacity="0.9" d="M106.112 77.4633C48.8984 110.817 45.476 223.429 126.855 221.274C163.244 220.308 173.876 182.191 206.716 168.814C237.547 156.247 264.13 181.448 295.252 152.91C331.923 119.319 337.191 37.1612 282.685 31.6691C258.952 29.2761 249.801 52.9461 229.065 58.1854C187.029 68.8128 148.624 52.6934 106.112 77.4633Z" fill="white"/>
<path d="M186.837 277.702C266.506 277.702 331.091 273.935 331.091 269.289C331.091 264.643 266.506 260.876 186.837 260.876C107.168 260.876 42.5828 264.643 42.5828 269.289C42.5828 273.935 107.168 277.702 186.837 277.702Z" fill="#F5F5F5"/>
<path d="M37.1882 71.8435L206.798 96.2344L229.557 119.176L37.1882 71.8435Z" fill="#788AC1"/>
<path opacity="0.6" d="M37.1882 71.8435L206.798 96.2344L229.557 119.176L37.1882 71.8435Z" fill="white"/>
<path d="M37.1882 71.8435L206.798 96.2344L198.926 129.41L37.1882 71.8435Z" fill="#788AC1"/>
<path opacity="0.2" d="M37.1882 71.8435L206.798 96.2344L198.926 129.41L37.1882 71.8435Z" fill="black"/>
<path d="M195.445 33.4359L205.288 79.5124C205.544 80.7156 205.311 81.9711 204.642 83.0035C203.972 84.0359 202.92 84.7608 201.716 85.0193L113.865 103.747C112.661 104.001 111.405 103.768 110.372 103.1C109.339 102.431 108.612 101.382 108.352 100.18L98.5013 54.1034C98.2475 52.8994 98.4816 51.6439 99.1523 50.6119C99.8229 49.5798 100.876 48.8551 102.08 48.5965L189.931 29.8686C191.137 29.6151 192.394 29.8489 193.427 30.5189C194.46 31.1888 195.186 32.2403 195.445 33.4433V33.4359Z" fill="#788AC1"/>
<path opacity="0.4" d="M195.445 33.4359L205.288 79.5124C205.544 80.7156 205.311 81.9711 204.642 83.0035C203.972 84.0359 202.92 84.7608 201.716 85.0193L113.865 103.747C112.661 104.001 111.405 103.768 110.372 103.1C109.339 102.431 108.612 101.382 108.352 100.18L98.5013 54.1034C98.2475 52.8994 98.4816 51.6439 99.1523 50.6119C99.8229 49.5798 100.876 48.8551 102.08 48.5965L189.931 29.8686C191.137 29.6151 192.394 29.8489 193.427 30.5189C194.46 31.1888 195.186 32.2403 195.445 33.4433V33.4359Z" fill="black"/>
<path d="M193.279 30.4193L163.928 66.4111C161.206 69.748 157.425 72.0568 153.211 72.9555C148.996 73.8542 144.601 73.2889 140.752 71.3532L99.2444 50.4701C99.9159 49.5065 100.929 48.8343 102.079 48.5899L189.931 29.8619C191.077 29.6182 192.273 29.8174 193.279 30.4193Z" fill="#788AC1"/>
<path d="M37.1882 71.8435L177.083 105.056L198.926 129.41L37.1882 71.8435Z" fill="#788AC1"/>
<path opacity="0.6" d="M37.1882 71.8435L177.083 105.056L198.926 129.41L37.1882 71.8435Z" fill="white"/>
<path d="M88.2186 103.856L87.8425 104.497L103.41 113.606L103.786 112.965L88.2186 103.856Z" fill="#788AC1"/>
<path d="M110.66 116.98L110.284 117.621L115.882 120.897L116.258 120.255L110.66 116.98Z" fill="#788AC1"/>
<path d="M37.1882 71.8435L177.083 105.056L149.889 137.792L37.1882 71.8435Z" fill="#788AC1"/>
<path d="M224.304 149.653C224.115 149.654 223.928 149.619 223.753 149.549L200.972 140.542C200.607 140.396 200.316 140.111 200.161 139.75C200.006 139.39 200 138.982 200.144 138.617C200.288 138.252 200.571 137.959 200.931 137.802C201.291 137.645 201.699 137.636 202.065 137.778L224.854 146.785C225.177 146.912 225.444 147.148 225.611 147.451C225.778 147.755 225.834 148.107 225.769 148.447C225.703 148.787 225.521 149.094 225.254 149.314C224.986 149.534 224.65 149.654 224.304 149.653Z" fill="#788AC1"/>
<path opacity="0.3" d="M224.304 149.653C224.115 149.654 223.928 149.619 223.753 149.549L200.972 140.542C200.607 140.396 200.316 140.111 200.161 139.75C200.006 139.39 200 138.982 200.144 138.617C200.288 138.252 200.571 137.959 200.931 137.802C201.291 137.645 201.699 137.636 202.065 137.778L224.854 146.785C225.177 146.912 225.444 147.148 225.611 147.451C225.778 147.755 225.834 148.107 225.769 148.447C225.703 148.787 225.521 149.094 225.254 149.314C224.986 149.534 224.65 149.654 224.304 149.653Z" fill="black"/>
<path d="M222.958 136.603C222.771 136.602 222.586 136.564 222.414 136.491L210.176 131.624C209.993 131.553 209.826 131.447 209.684 131.311C209.542 131.175 209.429 131.013 209.35 130.834C209.271 130.654 209.229 130.461 209.226 130.265C209.222 130.069 209.257 129.874 209.329 129.692C209.402 129.509 209.509 129.343 209.646 129.202C209.783 129.062 209.946 128.95 210.126 128.872C210.306 128.795 210.5 128.754 210.696 128.752C210.893 128.749 211.087 128.786 211.269 128.859L223.508 133.705C223.875 133.849 224.169 134.132 224.327 134.493C224.485 134.854 224.493 135.263 224.349 135.629C224.244 135.914 224.055 136.16 223.806 136.334C223.557 136.508 223.261 136.602 222.958 136.603Z" fill="#788AC1"/>
<path opacity="0.5" d="M222.958 136.603C222.771 136.602 222.586 136.564 222.414 136.491L210.176 131.624C209.993 131.553 209.826 131.447 209.684 131.311C209.542 131.175 209.429 131.013 209.35 130.834C209.271 130.654 209.229 130.461 209.226 130.265C209.222 130.069 209.257 129.874 209.329 129.692C209.402 129.509 209.509 129.343 209.646 129.202C209.783 129.062 209.946 128.95 210.126 128.872C210.306 128.795 210.5 128.754 210.696 128.752C210.893 128.749 211.087 128.786 211.269 128.859L223.508 133.705C223.875 133.849 224.169 134.132 224.327 134.493C224.485 134.854 224.493 135.263 224.349 135.629C224.244 135.914 224.055 136.16 223.806 136.334C223.557 136.508 223.261 136.602 222.958 136.603Z" fill="white"/>
<path d="M197.372 149.461C197.186 149.459 197.002 149.423 196.829 149.357L174.605 140.543C174.422 140.472 174.255 140.366 174.114 140.23C173.972 140.094 173.858 139.932 173.78 139.752C173.701 139.573 173.659 139.38 173.655 139.184C173.652 138.988 173.687 138.793 173.759 138.611C173.831 138.428 173.939 138.262 174.075 138.121C174.212 137.981 174.375 137.868 174.556 137.791C174.736 137.714 174.93 137.673 175.126 137.671C175.322 137.668 175.517 137.705 175.699 137.778L197.922 146.562C198.245 146.69 198.512 146.925 198.679 147.229C198.846 147.532 198.902 147.884 198.837 148.225C198.772 148.565 198.589 148.871 198.322 149.091C198.054 149.312 197.718 149.432 197.372 149.431V149.461Z" fill="#788AC1"/>
<path opacity="0.3" d="M197.372 149.461C197.186 149.459 197.002 149.423 196.829 149.357L174.605 140.543C174.422 140.472 174.255 140.366 174.114 140.23C173.972 140.094 173.858 139.932 173.78 139.752C173.701 139.573 173.659 139.38 173.655 139.184C173.652 138.988 173.687 138.793 173.759 138.611C173.831 138.428 173.939 138.262 174.075 138.121C174.212 137.981 174.375 137.868 174.556 137.791C174.736 137.714 174.93 137.673 175.126 137.671C175.322 137.668 175.517 137.705 175.699 137.778L197.922 146.562C198.245 146.69 198.512 146.925 198.679 147.229C198.846 147.532 198.902 147.884 198.837 148.225C198.772 148.565 198.589 148.871 198.322 149.091C198.054 149.312 197.718 149.432 197.372 149.431V149.461Z" fill="black"/>
<path d="M277.829 82.4419C279.801 86.2841 281.608 90.1337 283.327 94.0725C285.046 98.0113 286.645 102.002 288.044 106.186L288.55 107.769C288.639 108.052 288.766 108.512 288.84 108.839C288.915 109.166 288.981 109.538 289.019 109.85C289.189 111.049 289.276 112.258 289.279 113.469C289.29 115.703 289.186 117.935 288.967 120.158C288.551 124.46 287.875 128.734 286.943 132.955L282.858 132.502C282.806 128.318 282.769 124.089 282.62 119.965C282.553 117.913 282.434 115.855 282.226 113.923C282.132 113.015 281.983 112.114 281.78 111.225C281.742 111.017 281.683 110.861 281.638 110.69C281.594 110.519 281.549 110.459 281.475 110.236L280.909 108.832C279.354 105.071 277.606 101.281 275.82 97.5059L270.419 86.18L277.829 82.4419Z" fill="#E4897B"/>
<path d="M282.917 131.193L281.012 134.753L287.098 136.447C287.098 136.447 288.259 133.586 286.875 131.327L282.917 131.193Z" fill="#E4897B"/>
<path d="M278.684 139.882L284.279 140.327L287.099 136.448L281.013 134.754L278.684 139.882Z" fill="#E4897B"/>
<path d="M252.213 56.7576C252.131 57.1961 251.826 57.5008 251.544 57.4414C251.261 57.3819 251.105 56.988 251.194 56.557C251.283 56.1259 251.581 55.8138 251.863 55.8732C252.146 55.9327 252.31 56.3266 252.213 56.7576Z" fill="#263238"/>
<path d="M251.871 57.501C251.085 58.7168 250.137 59.8195 249.052 60.7783C249.305 61.0476 249.614 61.2588 249.957 61.3973C250.3 61.5359 250.668 61.5985 251.038 61.581L251.871 57.501Z" fill="#DE5753"/>
<path d="M254.281 54.6844C254.211 54.6826 254.144 54.6533 254.095 54.6027C253.881 54.3585 253.613 54.168 253.312 54.0466C253.01 53.9252 252.685 53.8764 252.361 53.9041C252.3 53.9047 252.24 53.8834 252.192 53.8441C252.145 53.8047 252.113 53.7498 252.102 53.6892C252.092 53.6285 252.103 53.5661 252.134 53.5129C252.165 53.4597 252.214 53.4192 252.272 53.3987C252.686 53.3463 253.106 53.397 253.495 53.5461C253.885 53.6952 254.231 53.9382 254.504 54.2534C254.552 54.302 254.578 54.3674 254.578 54.4355C254.578 54.5035 254.552 54.5689 254.504 54.6175C254.474 54.6448 254.439 54.6649 254.4 54.6765C254.361 54.6881 254.321 54.6908 254.281 54.6844Z" fill="#263238"/>
<path d="M264.519 62.8301C263.738 66.8283 262.957 74.1411 265.754 76.8091C265.754 76.8091 264.66 80.8594 257.228 80.8594C249.044 80.8594 253.329 76.8091 253.329 76.8091C257.793 75.7464 257.667 72.4393 256.893 69.3402L264.519 62.8301Z" fill="#E4897B"/>
<path d="M266.876 79.3282C267.464 77.3737 268.111 75.1367 266.772 74.4307C265.284 73.6875 257.196 72.87 254.406 74.3192C251.616 75.7684 252.412 79.7444 252.412 79.7444L266.876 79.3282Z" fill="#263238"/>
<path d="M284.035 264.652C283.804 264.683 283.569 264.667 283.344 264.606C283.119 264.545 282.909 264.439 282.725 264.296C282.661 264.206 282.626 264.098 282.626 263.987C282.626 263.877 282.661 263.769 282.725 263.679C282.768 263.602 282.826 263.535 282.897 263.482C282.968 263.43 283.049 263.393 283.135 263.374C283.938 263.196 285.441 264.221 285.508 264.266C285.527 264.282 285.542 264.303 285.551 264.326C285.56 264.35 285.563 264.375 285.56 264.4C285.556 264.424 285.544 264.446 285.527 264.463C285.51 264.481 285.487 264.492 285.463 264.496C284.994 264.598 284.515 264.65 284.035 264.652ZM283.35 263.612H283.194C283.144 263.622 283.096 263.644 283.055 263.675C283.014 263.705 282.98 263.745 282.956 263.79C282.837 263.998 282.911 264.088 282.956 264.117C283.187 264.429 284.303 264.429 285.121 264.296C284.588 263.944 283.983 263.716 283.35 263.627V263.612Z" fill="#788AC1"/>
<path d="M285.432 264.519H285.373C284.807 264.206 283.713 263.032 283.825 262.408C283.844 262.312 283.896 262.225 283.972 262.162C284.048 262.1 284.143 262.066 284.242 262.066C284.34 262.055 284.439 262.065 284.533 262.093C284.628 262.121 284.716 262.167 284.792 262.23C285.425 262.75 285.536 264.325 285.536 264.392C285.539 264.416 285.535 264.44 285.525 264.461C285.514 264.482 285.497 264.499 285.477 264.511C285.463 264.517 285.447 264.519 285.432 264.519ZM284.331 262.289H284.301C284.13 262.289 284.115 262.393 284.108 262.423C284.041 262.787 284.74 263.686 285.298 264.11C285.261 263.489 285.038 262.894 284.658 262.4C284.608 262.361 284.551 262.333 284.49 262.316C284.428 262.3 284.364 262.295 284.301 262.304L284.331 262.289Z" fill="#788AC1"/>
<path d="M251.217 264.652C250.517 264.652 249.84 264.555 249.61 264.243C249.552 264.16 249.52 264.062 249.52 263.961C249.52 263.86 249.552 263.761 249.61 263.678C249.655 263.602 249.715 263.536 249.787 263.483C249.858 263.431 249.94 263.394 250.026 263.374C250.927 263.128 252.846 264.213 252.928 264.258C252.95 264.272 252.967 264.292 252.978 264.316C252.988 264.34 252.992 264.366 252.988 264.392C252.983 264.418 252.971 264.442 252.952 264.46C252.934 264.479 252.909 264.492 252.883 264.496C252.334 264.599 251.776 264.651 251.217 264.652ZM250.346 263.597C250.265 263.585 250.182 263.585 250.101 263.597C250.049 263.607 249.999 263.628 249.955 263.659C249.912 263.69 249.875 263.729 249.848 263.775C249.751 263.938 249.788 264.013 249.848 264.057C250.093 264.399 251.477 264.421 252.504 264.28C251.835 263.92 251.102 263.692 250.346 263.611V263.597Z" fill="#788AC1"/>
<path d="M252.867 264.518H252.815C252.153 264.228 250.851 263.032 250.947 262.43C250.947 262.281 251.074 262.103 251.431 262.066C251.564 262.046 251.699 262.055 251.828 262.094C251.957 262.132 252.075 262.199 252.175 262.289C252.874 262.853 253.016 264.325 253.023 264.392C253.026 264.414 253.023 264.438 253.013 264.458C253.004 264.479 252.99 264.497 252.971 264.511C252.955 264.519 252.938 264.524 252.92 264.526C252.902 264.527 252.884 264.524 252.867 264.518ZM251.535 262.289H251.453C251.223 262.289 251.208 262.408 251.2 262.437C251.141 262.809 252.033 263.738 252.688 264.139C252.624 263.515 252.363 262.927 251.944 262.46C251.838 262.368 251.705 262.313 251.565 262.304L251.535 262.289Z" fill="#788AC1"/>
<path d="M258.879 264.384H253.411L252.868 251.743H258.336L258.879 264.384Z" fill="#E4897B"/>
<path d="M291.697 264.384H286.229L283.483 251.743H288.944L291.697 264.384Z" fill="#E4897B"/>
<path d="M285.842 263.753H291.98C292.09 263.753 292.196 263.791 292.281 263.86C292.366 263.929 292.426 264.025 292.449 264.132L293.528 268.985C293.553 269.103 293.55 269.225 293.521 269.342C293.492 269.459 293.437 269.568 293.359 269.661C293.282 269.754 293.185 269.828 293.075 269.878C292.965 269.929 292.845 269.953 292.724 269.951C290.582 269.914 289.54 269.787 286.839 269.787C285.18 269.787 281.758 269.966 279.459 269.966C277.16 269.966 276.87 267.736 277.807 267.491C282.018 266.569 283.603 265.298 284.95 264.095C285.194 263.874 285.513 263.752 285.842 263.753Z" fill="#263238"/>
<path d="M253.447 263.753H259.399C259.509 263.753 259.615 263.791 259.7 263.86C259.785 263.929 259.844 264.025 259.868 264.132L260.947 268.985C260.972 269.102 260.971 269.223 260.944 269.34C260.916 269.456 260.862 269.565 260.786 269.658C260.71 269.751 260.614 269.826 260.506 269.876C260.397 269.927 260.278 269.952 260.158 269.951C258.008 269.914 254.898 269.787 252.19 269.787C249.028 269.787 246.29 269.966 242.577 269.966C240.345 269.966 239.713 267.736 240.65 267.491C244.928 266.554 248.418 266.458 252.115 264.184C252.509 263.916 252.971 263.767 253.447 263.753Z" fill="#263238"/>
<path d="M250.822 86.3956C246.251 86.0419 241.704 85.439 237.199 84.5897C234.967 84.1587 232.691 83.6756 230.429 83.0662C228.111 82.4735 225.834 81.7287 223.614 80.8367C223.041 80.5989 222.461 80.3388 221.888 80.0935C221.243 79.7761 220.621 79.4136 220.028 79.0085C218.956 78.3025 218.034 77.5667 217.119 76.8384C215.296 75.3521 213.607 73.8657 211.911 72.3422C208.585 69.2655 205.43 66.0847 202.387 62.7405L205.125 59.686L215.921 67.4373C217.699 68.7156 219.499 69.9715 221.27 71.1532C222.148 71.7403 223.048 72.2902 223.874 72.7584C224.219 72.9551 224.577 73.1289 224.946 73.2786C225.385 73.4496 225.831 73.6205 226.3 73.784C230.321 75.0208 234.433 75.9402 238.598 76.5337C242.846 77.2026 247.236 77.7525 251.477 78.1984L250.822 86.3956Z" fill="#E4897B"/>
<path d="M275.538 78.042C280.664 79.2162 285.842 94.1762 285.842 94.1762L275.3 101.734C275.3 101.734 272.324 94.7633 269.452 88.6693C266.446 82.2855 270.3 76.8455 275.538 78.042Z" fill="#788AC1"/>
<path opacity="0.4" d="M275.538 78.042C280.664 79.2162 285.842 94.1762 285.842 94.1762L275.3 101.734C275.3 101.734 272.324 94.7633 269.452 88.6693C266.446 82.2855 270.3 76.8455 275.538 78.042Z" fill="black"/>
<path d="M272.584 86.217L270.493 90.8916C272.658 95.5587 274.637 100.181 275.165 101.415C275.091 95.8931 274.042 89.0411 272.584 86.217Z" fill="#788AC1"/>
<path opacity="0.6" d="M272.584 86.217L270.493 90.8916C272.658 95.5587 274.637 100.181 275.165 101.415C275.091 95.8931 274.042 89.0411 272.584 86.217Z" fill="black"/>
<path d="M244.921 78.3237C244.921 78.3237 239.103 84.8859 244.593 125.515H273.825C274.033 121.056 271.214 99.1622 275.536 78.0413C272.305 77.4198 269.037 77.0077 265.753 76.8076C261.615 76.5697 257.466 76.5697 253.328 76.8076C250.49 77.0932 247.679 77.6001 244.921 78.3237Z" fill="#788AC1"/>
<path opacity="0.4" d="M244.921 78.3237C244.921 78.3237 239.103 84.8859 244.593 125.515H273.825C274.033 121.056 271.214 99.1622 275.536 78.0413C272.305 77.4198 269.037 77.0077 265.753 76.8076C261.615 76.5697 257.466 76.5697 253.328 76.8076C250.49 77.0932 247.679 77.6001 244.921 78.3237Z" fill="black"/>
<path d="M242.756 86.217C242.563 87.7554 242.414 89.5762 242.317 91.724C245.204 90.8585 247.947 89.5713 250.457 87.9041L242.756 86.217Z" fill="#788AC1"/>
<path opacity="0.6" d="M242.756 86.217C242.563 87.7554 242.414 89.5762 242.317 91.724C245.204 90.8585 247.947 89.5713 250.457 87.9041L242.756 86.217Z" fill="black"/>
<path d="M255.286 87.0348C251.373 90.498 236.433 90.1487 236.433 90.1487L235.942 75.7014C240.987 76.4192 246.076 76.7867 251.172 76.8013C259.497 76.6304 259.557 83.2149 255.286 87.0348Z" fill="#788AC1"/>
<path opacity="0.4" d="M255.286 87.0348C251.373 90.498 236.433 90.1487 236.433 90.1487L235.942 75.7014C240.987 76.4192 246.076 76.7867 251.172 76.8013C259.497 76.6304 259.557 83.2149 255.286 87.0348Z" fill="black"/>
<path d="M205.268 59.7157L201.548 55.3384L197.538 59.7974C197.538 59.7974 200.008 63.9443 203.929 63.2903L205.268 59.7157Z" fill="#E4897B"/>
<path d="M196.219 50.2327L194.776 55.9476L197.507 59.7675L201.517 55.3382L196.219 50.2327Z" fill="#E4897B"/>
<path d="M252.868 251.751L253.151 258.262H258.619L258.336 251.751H252.868Z" fill="#CE6F64"/>
<path d="M288.952 251.751H283.483L284.897 258.262H290.365L288.952 251.751Z" fill="#CE6F64"/>
<path d="M256.156 51.3623C251.253 49.1328 249.706 39.2263 263.812 41.7011C263.812 41.7011 261.684 44.0495 265.999 45.5358C270.315 47.0222 266.706 56.2003 256.156 51.3623Z" fill="#263238"/>
<path d="M266.81 58.7941C265.404 63.9963 264.853 67.1622 261.602 69.3397C256.736 72.6096 250.687 68.8566 250.494 63.3051C250.323 58.3184 252.651 50.5969 258.269 49.5416C259.509 49.2988 260.79 49.3773 261.991 49.7697C263.192 50.1621 264.272 50.8552 265.128 51.783C265.985 52.7109 266.589 53.8424 266.883 55.0698C267.178 56.2971 267.152 57.5793 266.81 58.7941Z" fill="#E4897B"/>
<path d="M263.618 44.3019C266.958 46.1599 271.482 47.2746 271.058 49.9203C270.5 53.1531 273.788 51.1317 273.022 55.94C272.523 59.0836 266.72 68.611 262.606 68.1503C256.46 67.4071 257.242 58.0729 257.219 53.1531C257.204 50.2473 257.07 40.6381 263.618 44.3019Z" fill="#263238"/>
<path d="M256.483 48.4709C254.995 48.8202 253.024 57.389 258.79 58.1767C265.419 59.076 256.483 48.4709 256.483 48.4709Z" fill="#263238"/>
<path d="M256.632 51.5112C254.809 51.6747 250.68 49.4824 251.186 46.1827C251.186 46.1604 253.797 50.0398 256.632 51.5112Z" fill="#263238"/>
<path d="M259.341 58.8618C258.782 60.0872 257.832 61.0932 256.64 61.723C255.071 62.5405 254.185 61.3515 254.542 59.7759C254.862 58.3639 256.068 56.231 257.682 56.0601C259.297 55.8892 259.988 57.3755 259.341 58.8618Z" fill="#E4897B"/>
<path d="M267.524 52.8484C268.636 52.3664 269.611 51.6165 270.361 50.6658C271.112 49.7151 271.615 48.5933 271.824 47.4009C271.824 47.4009 274.28 54.2158 267.524 52.8484Z" fill="#263238"/>
<path d="M273.729 52.7357C273.211 52.3884 272.615 52.1747 271.995 52.1137C271.374 52.0528 270.748 52.1465 270.173 52.3864C270.173 52.3864 272.464 49.4212 273.729 52.7357Z" fill="#263238"/>
<path d="M254.966 125.515C254.966 125.515 261.171 167.237 264.571 182.866C268.291 199.959 282.352 257.004 282.352 257.004H292.359C292.359 257.004 283.096 201.363 280.968 184.389C278.662 165.996 273.826 125.486 273.826 125.486L254.966 125.515Z" fill="#788AC1"/>
<path opacity="0.5" d="M254.966 125.515C254.966 125.515 261.171 167.237 264.571 182.866C268.291 199.959 282.352 257.004 282.352 257.004H292.359C292.359 257.004 283.096 201.363 280.968 184.389C278.662 165.996 273.826 125.486 273.826 125.486L254.966 125.515Z" fill="white"/>
<path d="M280.752 253.32C280.707 253.32 281.786 257.162 281.786 257.162H293.05L292.842 253.736L280.752 253.32Z" fill="#788AC1"/>
<path opacity="0.1" d="M280.752 253.32C280.707 253.32 281.786 257.162 281.786 257.162H293.05L292.842 253.736L280.752 253.32Z" fill="black"/>
<path d="M258.887 140.379C266.059 141.784 265.3 168.501 264.437 182.242C262.369 172.529 259.341 153.838 257.272 140.572C257.773 140.326 258.342 140.258 258.887 140.379Z" fill="#788AC1"/>
<path opacity="0.4" d="M258.887 140.379C266.059 141.784 265.3 168.501 264.437 182.242C262.369 172.529 259.341 153.838 257.272 140.572C257.773 140.326 258.342 140.258 258.887 140.379Z" fill="white"/>
<path d="M244.594 125.516C244.594 125.516 243.85 166.331 244.438 182.985C245.055 200.301 251.134 257.005 251.134 257.005H260.389C260.389 257.005 260.731 201.312 261.133 184.308C261.587 165.766 263.826 125.516 263.826 125.516H244.594Z" fill="#788AC1"/>
<path opacity="0.5" d="M244.594 125.516C244.594 125.516 243.85 166.331 244.438 182.985C245.055 200.301 251.134 257.005 251.134 257.005H260.389C260.389 257.005 260.731 201.312 261.133 184.308C261.587 165.766 263.826 125.516 263.826 125.516H244.594Z" fill="white"/>
<path d="M253.053 250.36C253.03 250.361 253.009 250.352 252.992 250.337C252.976 250.322 252.965 250.301 252.964 250.279C251.327 234.583 247.48 196.607 247.012 182.985C246.513 169.08 246.967 137.882 247.116 128.651C247.116 128.628 247.125 128.605 247.142 128.588C247.159 128.572 247.181 128.562 247.205 128.562C247.229 128.562 247.253 128.571 247.271 128.588C247.289 128.604 247.3 128.627 247.302 128.651C247.153 137.882 246.699 169.08 247.198 182.977C247.681 196.6 251.528 234.561 253.15 250.256C253.15 250.282 253.141 250.306 253.124 250.325C253.108 250.344 253.085 250.357 253.06 250.36H253.053Z" fill="#788AC1"/>
<path opacity="0.4" d="M253.053 250.36C253.03 250.361 253.009 250.352 252.992 250.337C252.976 250.322 252.965 250.301 252.964 250.279C251.327 234.583 247.48 196.607 247.012 182.985C246.513 169.08 246.967 137.882 247.116 128.651C247.116 128.628 247.125 128.605 247.142 128.588C247.159 128.572 247.181 128.562 247.205 128.562C247.229 128.562 247.253 128.571 247.271 128.588C247.289 128.604 247.3 128.627 247.302 128.651C247.153 137.882 246.699 169.08 247.198 182.977C247.681 196.6 251.528 234.561 253.15 250.256C253.15 250.282 253.141 250.306 253.124 250.325C253.108 250.344 253.085 250.357 253.06 250.36H253.053Z" fill="white"/>
<path d="M249.333 253.32C249.295 253.32 249.861 257.162 249.861 257.162H261.118L261.423 253.736L249.333 253.32Z" fill="#788AC1"/>
<path opacity="0.1" d="M249.333 253.32C249.295 253.32 249.861 257.162 249.861 257.162H261.118L261.423 253.736L249.333 253.32Z" fill="black"/>
</svg>
