<svg width="40" height="41" viewBox="0 0 40 41" fill="none" xmlns="http://www.w3.org/2000/svg">
<path d="M35.4572 0.889478C34.7842 0.884616 34.2396 1.1206 33.9139 1.45099L33.7755 1.57779L32.9732 2.39175C32.9453 2.41141 32.9211 2.43594 32.9018 2.46421L31.8305 3.55101C31.8026 3.57066 31.7784 3.5952 31.7591 3.62346L30.6878 4.71026C30.6599 4.72992 30.6357 4.75445 30.6164 4.78272L15.7646 19.8496C15.5696 20.0474 15.4166 20.2838 15.316 20.5447C15.0408 21.2598 14.3755 22.9892 13.776 24.5478C13.4763 25.327 13.1936 26.0639 12.9837 26.6093C12.8788 26.882 12.7915 27.1062 12.7304 27.2648C12.6693 27.4234 12.6198 27.5514 12.6333 27.5184L12.6322 27.5195V27.5206C12.5069 27.8348 12.5715 28.2087 12.8208 28.4614C13.07 28.7142 13.4383 28.7798 13.7481 28.6527V28.6538C13.729 28.6616 14.1099 28.5101 14.6476 28.2972C15.1852 28.0844 15.9115 27.7964 16.6796 27.4923C18.216 26.8842 19.9207 26.2103 20.6255 25.9312C20.8835 25.8291 21.1159 25.6737 21.3107 25.4761L36.1591 10.4137C36.1907 10.3918 36.2177 10.3637 36.2383 10.3311L37.2974 9.25671C37.3308 9.23465 37.3593 9.20572 37.3811 9.1718L38.4412 8.09746C38.4742 8.07527 38.5023 8.04635 38.5238 8.01255L39.3216 7.20424L39.4466 7.06386C40.191 6.30861 40.4487 4.39444 38.497 2.4144C37.5211 1.42437 36.5619 0.994185 35.7529 0.906459C35.6518 0.895494 35.5533 0.890173 35.4572 0.889478ZM35.2251 1.49175C35.3681 1.47737 35.5231 1.47627 35.6893 1.49288C36.3541 1.55933 37.1909 1.909 38.093 2.82421C39.8973 4.65463 39.4718 6.21867 39.0427 6.65405L39.0382 6.65971L38.9076 6.80462L38.2805 7.44085L37.6254 6.77631C37.5988 6.74838 37.5669 6.72617 37.5316 6.711C37.4963 6.69583 37.4584 6.68801 37.4201 6.68801C37.3632 6.68802 37.3076 6.70527 37.2604 6.73754C37.2133 6.76982 37.1767 6.81565 37.1553 6.86916C37.134 6.92267 37.1289 6.98143 37.1407 7.0379C37.1524 7.09437 37.1806 7.14599 37.2215 7.18613L37.8765 7.85066L37.1378 8.6001L32.3996 3.79327L33.1383 3.04383L36.0788 6.02688C36.1051 6.05469 36.1366 6.07689 36.1715 6.09219C36.2064 6.10748 36.2439 6.11556 36.282 6.11595C36.32 6.11634 36.3577 6.10904 36.3928 6.09446C36.428 6.07989 36.46 6.05834 36.4869 6.03108C36.5138 6.00381 36.535 5.97138 36.5494 5.93568C36.5637 5.89999 36.5709 5.86174 36.5705 5.82319C36.5702 5.78463 36.5622 5.74654 36.5471 5.71115C36.532 5.67575 36.5102 5.64377 36.4827 5.61706L33.5423 2.63402L34.1694 1.99779L34.3123 1.86533L34.3179 1.86081C34.4788 1.6975 34.7962 1.53486 35.2251 1.49175ZM31.9956 4.20309L36.7338 9.00992L35.9951 9.75936L34.512 8.25482C34.4953 8.23198 34.4754 8.21176 34.4529 8.19482L32.798 6.51594C32.7813 6.4931 32.7613 6.47288 32.7388 6.45594L31.2569 4.95253L31.9956 4.20309ZM30.8529 5.36234L32.163 6.69141L20.6523 18.3689C20.6249 18.3956 20.603 18.4275 20.5879 18.4629C20.5729 18.4983 20.5649 18.5364 20.5645 18.575C20.5641 18.6135 20.5713 18.6518 20.5857 18.6875C20.6001 18.7232 20.6213 18.7556 20.6482 18.7829C20.675 18.8101 20.707 18.8317 20.7422 18.8463C20.7774 18.8608 20.8151 18.8681 20.8531 18.8677C20.8911 18.8674 20.9286 18.8593 20.9635 18.844C20.9984 18.8287 21.0299 18.8065 21.0563 18.7787L32.567 7.10122L33.8771 8.43029L32.0793 10.2541C32.0519 10.2808 32.03 10.3128 32.0149 10.3482C31.9999 10.3836 31.9919 10.4216 31.9915 10.4602C31.9911 10.4988 31.9983 10.537 32.0127 10.5727C32.0271 10.6084 32.0483 10.6408 32.0752 10.6681C32.1021 10.6954 32.134 10.7169 32.1692 10.7315C32.2044 10.7461 32.2421 10.7534 32.2801 10.753C32.3181 10.7526 32.3557 10.7445 32.3905 10.7292C32.4254 10.7139 32.457 10.6917 32.4833 10.6639L34.281 8.8401L35.5911 10.1692L20.9067 25.0663C20.8889 25.0843 20.8673 25.0968 20.8487 25.1138L19.5442 23.7904L31.3406 11.8231C31.3817 11.7824 31.4097 11.73 31.421 11.6729C31.4323 11.6158 31.4263 11.5565 31.4039 11.5028C31.3815 11.4492 31.3437 11.4036 31.2953 11.3721C31.247 11.3406 31.1904 11.3246 31.133 11.3262C31.0589 11.3283 30.9885 11.3595 30.9366 11.4133L19.1402 23.3806L16.1217 20.3183C16.1384 20.2995 16.1508 20.2775 16.1685 20.2594L30.8529 5.36234ZM6.85621 3.79327C3.07646 3.79327 0 6.9143 0 10.7488V33.9339C0 37.7684 3.07646 40.8894 6.85621 40.8894H29.7102C33.49 40.8894 36.5664 37.7684 36.5664 33.9339V13.6469C36.5675 13.5701 36.5535 13.4939 36.5253 13.4226C36.497 13.3513 36.4551 13.2864 36.402 13.2317C36.3488 13.177 36.2855 13.1336 36.2156 13.104C36.1458 13.0743 36.0708 13.0591 35.9951 13.0591C35.9194 13.0591 35.8444 13.0743 35.7745 13.104C35.7047 13.1336 35.6413 13.177 35.5882 13.2317C35.535 13.2864 35.4931 13.3513 35.4649 13.4226C35.4366 13.4939 35.4227 13.5701 35.4237 13.6469V33.9339C35.4237 37.1418 32.8724 39.7302 29.7102 39.7302H6.85621C3.69405 39.7302 1.1427 37.1418 1.1427 33.9339V10.7488C1.1427 7.54083 3.69405 4.95253 6.85621 4.95253H26.8535C26.9292 4.95361 27.0044 4.93942 27.0746 4.91078C27.1449 4.88214 27.2088 4.83962 27.2627 4.78569C27.3166 4.73176 27.3595 4.66749 27.3887 4.59663C27.4179 4.52576 27.433 4.44972 27.433 4.3729C27.433 4.29609 27.4179 4.22004 27.3887 4.14917C27.3595 4.07831 27.3166 4.01404 27.2627 3.96011C27.2088 3.90618 27.1449 3.86366 27.0746 3.83502C27.0044 3.80638 26.9292 3.79219 26.8535 3.79327H6.85621ZM8.85593 6.69141C5.54598 6.69141 2.85675 9.4196 2.85675 12.7775V31.9052C2.85675 35.2631 5.54598 37.9913 8.85593 37.9913H27.7105C31.0204 37.9913 33.7097 35.2631 33.7097 31.9052V22.0515C33.7102 22.0131 33.7032 21.975 33.6891 21.9394C33.675 21.9037 33.654 21.8713 33.6274 21.8439C33.6009 21.8166 33.5692 21.7949 33.5343 21.78C33.4993 21.7652 33.4619 21.7576 33.424 21.7576C33.3861 21.7576 33.3487 21.7652 33.3137 21.78C33.2788 21.7949 33.2471 21.8166 33.2206 21.8439C33.194 21.8713 33.173 21.9037 33.1589 21.9394C33.1448 21.975 33.1378 22.0131 33.1383 22.0515V31.9052C33.1383 34.9498 30.7117 37.4116 27.7105 37.4116H8.85593C5.85474 37.4116 3.4281 34.9498 3.4281 31.9052V12.7775C3.4281 9.73283 5.85474 7.27104 8.85593 7.27104H24.8537C24.8916 7.27158 24.9292 7.26448 24.9643 7.25016C24.9994 7.23584 25.0314 7.21458 25.0584 7.18761C25.0853 7.16065 25.1067 7.12852 25.1214 7.09309C25.136 7.05765 25.1435 7.01963 25.1435 6.98122C25.1435 6.94281 25.136 6.90479 25.1214 6.86936C25.1067 6.83393 25.0853 6.80179 25.0584 6.77483C25.0314 6.74786 24.9994 6.7266 24.9643 6.71228C24.9292 6.69796 24.8916 6.69087 24.8537 6.69141H8.85593ZM33.4195 15.3813C33.382 15.3819 33.345 15.39 33.3106 15.4051C33.2761 15.4202 33.245 15.442 33.2188 15.4694C33.1927 15.4967 33.1722 15.529 33.1584 15.5644C33.1445 15.5998 33.1377 15.6376 33.1383 15.6756V17.4145C33.1378 17.4529 33.1448 17.491 33.1589 17.5267C33.173 17.5623 33.194 17.5948 33.2206 17.6221C33.2471 17.6495 33.2788 17.6712 33.3137 17.686C33.3487 17.7008 33.3861 17.7085 33.424 17.7085C33.4619 17.7085 33.4993 17.7008 33.5343 17.686C33.5692 17.6712 33.6009 17.6495 33.6274 17.6221C33.654 17.5948 33.675 17.5623 33.6891 17.5267C33.7032 17.491 33.7102 17.4529 33.7097 17.4145V15.6756C33.7103 15.6368 33.7032 15.5983 33.6888 15.5623C33.6744 15.5263 33.6531 15.4936 33.626 15.4661C33.599 15.4387 33.5667 15.417 33.5313 15.4025C33.4958 15.3879 33.4578 15.3807 33.4195 15.3813ZM19.706 19.4409C19.6319 19.443 19.5614 19.4743 19.5096 19.5281L18.3669 20.6874C18.3395 20.7141 18.3176 20.7461 18.3025 20.7814C18.2875 20.8168 18.2795 20.8549 18.2791 20.8935C18.2787 20.932 18.2859 20.9703 18.3003 21.006C18.3147 21.0417 18.3359 21.0741 18.3628 21.1014C18.3896 21.1286 18.4216 21.1502 18.4568 21.1648C18.492 21.1793 18.5297 21.1866 18.5677 21.1863C18.6057 21.1859 18.6432 21.1778 18.6781 21.1625C18.713 21.1472 18.7445 21.125 18.7709 21.0972L19.9136 19.9379C19.9547 19.8972 19.9827 19.8448 19.994 19.7877C20.0053 19.7305 19.9993 19.6713 19.9769 19.6176C19.9545 19.5639 19.9167 19.5184 19.8683 19.4869C19.82 19.4553 19.7634 19.4393 19.706 19.4409ZM15.8193 20.8311L18.8981 23.9546L18.8992 23.9568C18.92 23.9877 18.9465 24.0143 18.9773 24.0349C18.9784 24.0357 18.9795 24.0365 18.9807 24.0372L20.3432 25.4206C19.6151 25.7089 17.9794 26.3569 16.4721 26.9534C16.2908 27.0252 16.1669 27.0734 15.9922 27.1425L15.9855 27.1357L14.1286 25.2519L14.122 25.2451C14.1901 25.0679 14.2376 24.9423 14.3083 24.7583C14.8965 23.2293 15.5351 21.5698 15.8193 20.8311ZM33.4195 18.2794C33.382 18.28 33.345 18.2881 33.3106 18.3032C33.2761 18.3183 33.245 18.3402 33.2188 18.3675C33.1927 18.3948 33.1722 18.4271 33.1584 18.4625C33.1445 18.4979 33.1377 18.5357 33.1383 18.5738V20.8923C33.1378 20.9307 33.1448 20.9688 33.1589 21.0044C33.173 21.0401 33.194 21.0725 33.2206 21.0999C33.2471 21.1272 33.2788 21.1489 33.3137 21.1638C33.3487 21.1786 33.3861 21.1862 33.424 21.1862C33.4619 21.1862 33.4993 21.1786 33.5343 21.1638C33.5692 21.1489 33.6009 21.1272 33.6274 21.0999C33.654 21.0725 33.675 21.0401 33.6891 21.0044C33.7032 20.9688 33.7102 20.9307 33.7097 20.8923V18.5738C33.7103 18.5349 33.7032 18.4964 33.6888 18.4604C33.6744 18.4244 33.6531 18.3917 33.626 18.3643C33.599 18.3368 33.5667 18.3152 33.5313 18.3006C33.4958 18.286 33.4578 18.2788 33.4195 18.2794ZM13.8943 25.8338L15.412 27.3735C15.0846 27.5029 14.6971 27.6554 14.44 27.7572C13.9023 27.9701 13.5841 28.095 13.535 28.115V28.1161C13.4323 28.1582 13.3103 28.1384 13.2248 28.0516C13.1399 27.9657 13.1208 27.8419 13.1623 27.738C13.1817 27.6901 13.2021 27.6338 13.2627 27.4765C13.3239 27.3177 13.411 27.0926 13.516 26.8199C13.6164 26.559 13.7667 26.1659 13.8943 25.8338Z" fill="white"/>
</svg>
