<svg width="40" height="41" viewBox="0 0 40 41" fill="none" xmlns="http://www.w3.org/2000/svg">
<path d="M4.72866 0.88947C4.58925 0.891707 4.4564 0.950637 4.35927 1.05332C4.26214 1.15601 4.20866 1.29407 4.21057 1.43719L4.20954 11.1706C4.2107 12.9353 4.95221 14.2943 5.91389 15.4617C6.09772 15.6849 6.57321 16.1955 7.26669 16.9349C7.87864 17.5874 8.67041 18.4239 9.47371 19.2714V23.591H4.63203C4.52196 23.591 4.41466 23.6264 4.32523 23.6923C4.2358 23.7582 4.16874 23.8512 4.13347 23.9582L0.0278075 36.4398C0.00943662 36.4955 6.13962e-05 36.554 5.26362e-05 36.6128V40.3414C-0.000933702 40.413 0.0119509 40.4841 0.0379581 40.5505C0.0639653 40.617 0.102576 40.6774 0.151547 40.7284C0.200518 40.7794 0.258871 40.8199 0.323217 40.8475C0.387563 40.8752 0.456617 40.8894 0.526367 40.8894C0.596117 40.8894 0.665172 40.8752 0.729517 40.8475C0.793863 40.8199 0.852217 40.7794 0.901187 40.7284C0.950158 40.6774 0.988769 40.617 1.01478 40.5505C1.04078 40.4841 1.05367 40.413 1.05268 40.3414V37.0994H38.9473V40.3414C38.9463 40.413 38.9592 40.4841 38.9852 40.5505C39.0112 40.617 39.0498 40.6774 39.0988 40.7284C39.1478 40.7794 39.2061 40.8199 39.2705 40.8475C39.3348 40.8752 39.4039 40.8894 39.4736 40.8894C39.5434 40.8894 39.6124 40.8752 39.6768 40.8475C39.7411 40.8199 39.7995 40.7794 39.8485 40.7284C39.8974 40.6774 39.936 40.617 39.962 40.5505C39.9881 40.4841 40.0009 40.413 40 40.3414V36.6128C39.9999 36.554 39.9906 36.4955 39.9722 36.4398L35.8665 23.9582C35.8313 23.8512 35.7642 23.7582 35.6748 23.6923C35.5853 23.6264 35.478 23.591 35.368 23.591H30.5263V13.0544C30.5263 12.9828 30.4986 12.914 30.4492 12.8634C30.3999 12.8127 30.3329 12.7843 30.2631 12.7842H27.3684V12.7505C27.3684 10.8945 26.6527 9.11362 25.3772 7.79775C25.3769 7.79704 25.3766 7.79634 25.3762 7.79564L18.7932 1.0541C18.7439 1.00241 18.6851 0.961384 18.6201 0.933467C18.5551 0.90555 18.4853 0.891307 18.4149 0.891581C18.3101 0.891603 18.2076 0.92376 18.1207 0.983931C18.0338 1.0441 17.9664 1.12955 17.927 1.22931C17.8877 1.32908 17.8783 1.43863 17.9 1.54392C17.9218 1.6492 17.9736 1.74544 18.0489 1.82028L24.631 8.55971C25.7102 9.67319 26.3158 11.1796 26.3158 12.7505V12.7842H14.3051C13.7647 11.7044 13.1003 10.377 13.1003 10.377C13.0368 10.2494 12.9265 10.1529 12.7937 10.1087C12.6609 10.0646 12.5164 10.0765 12.3921 10.1417C12.2678 10.2069 12.1738 10.3201 12.1308 10.4565C12.0878 10.5929 12.0993 10.7412 12.1628 10.8688C12.1628 10.8688 15.3474 17.2713 16.8524 20.1305C17.471 21.3055 17.3934 21.7943 17.3396 22.41C17.2614 23.3042 16.459 24.1527 15.663 24.1229C15.6632 24.108 15.5289 24.0586 15.4338 23.9762C15.3041 23.8638 15.1842 23.7382 15.146 23.6976C15.1456 23.6972 15.1453 23.6968 15.145 23.6965C14.9958 23.5385 14.5159 23.0346 14.2969 22.8037L15.7124 21.3505C15.7502 21.3125 15.776 21.2637 15.7864 21.2104C15.7969 21.1571 15.7914 21.1019 15.7707 21.0519C15.7501 21.0018 15.7152 20.9594 15.6707 20.93C15.6262 20.9006 15.5741 20.8857 15.5212 20.8872C15.4529 20.8891 15.388 20.9183 15.3403 20.9684L13.9299 22.4164C12.9477 21.3819 11.878 20.2577 10.5222 18.8282C9.60255 17.8585 8.71618 16.9212 8.02532 16.1846C7.33446 15.448 6.81551 14.8828 6.71776 14.7641C5.83862 13.6969 5.26342 12.6333 5.26217 11.1706V11.1696L5.2632 1.43719C5.26416 1.3649 5.25099 1.29315 5.22445 1.22618C5.19792 1.15921 5.15856 1.09839 5.10872 1.04731C5.05887 0.99624 4.99956 0.955954 4.93427 0.928842C4.86899 0.901729 4.79907 0.888341 4.72866 0.88947ZM19.8273 13.3246H26.7537C26.8105 13.3342 26.8685 13.3342 26.9254 13.3246H30V24.0405C29.9906 24.0989 29.9906 24.1584 30 24.2168V31.696H27.8947V15.7561C27.8947 15.7116 27.884 15.6678 27.8636 15.6286C27.8431 15.5894 27.8136 15.556 27.7775 15.5313C27.3295 15.2246 26.567 14.9267 25.5736 14.6195C24.5802 14.3122 23.3648 14.0066 22.059 13.7351C21.3351 13.5846 20.5835 13.4485 19.8273 13.3246ZM14.5796 13.332C16.7399 13.3721 19.5071 13.7561 21.9541 14.2649C23.247 14.5337 24.4494 14.836 25.4215 15.1366C26.3384 15.4202 27.0032 15.7051 27.3684 15.9334V31.696H10V24.2221C10.0094 24.1637 10.0094 24.1042 10 24.0458V19.8276C11.7577 21.6798 13.6229 23.6368 14.3894 24.449C14.427 24.4889 14.5731 24.6455 14.7543 24.8025C14.9355 24.9595 15.0834 25.162 15.5047 25.2025C17.0219 25.3466 18.2579 23.9947 18.3882 22.5061C18.4418 21.8909 18.4884 20.9649 17.7786 19.6165C16.9084 17.9634 15.6357 15.4383 14.5796 13.332ZM5.00929 24.6716H9.47371V28.9943H8.9474C8.07929 28.9943 7.36845 29.7241 7.36845 30.6153C7.36845 31.5066 8.07929 32.2363 8.9474 32.2363H27.5894C27.6177 32.2411 27.6465 32.2411 27.6747 32.2363H31.0526C31.9207 32.2363 32.6315 31.5066 32.6315 30.6153C32.6315 29.7241 31.9207 28.9943 31.0526 28.9943H30.5263V24.6716H34.9907L38.9 36.559H1.09997L5.00929 24.6716ZM7.46508 26.2926C6.6758 26.2926 5.97173 26.8114 5.71961 27.5791L3.88573 33.1545C3.60004 34.0223 4.23989 34.938 5.13265 34.938H23.9474C23.9822 34.9385 24.0169 34.9319 24.0492 34.9186C24.0816 34.9052 24.111 34.8854 24.1359 34.8602C24.1607 34.8351 24.1804 34.8052 24.1939 34.7721C24.2073 34.7391 24.2143 34.7037 24.2143 34.6678C24.2143 34.632 24.2073 34.5966 24.1939 34.5636C24.1804 34.5305 24.1607 34.5006 24.1359 34.4754C24.111 34.4503 24.0816 34.4305 24.0492 34.4171C24.0169 34.4038 23.9822 34.3972 23.9474 34.3977H5.13265C4.58436 34.3977 4.20893 33.8603 4.38429 33.3276L6.21817 27.7511C6.39868 27.2015 6.89963 26.833 7.46508 26.833H8.15793C8.1928 26.8335 8.22742 26.8269 8.25978 26.8135C8.29214 26.8002 8.32159 26.7803 8.34643 26.7552C8.37126 26.7301 8.39098 26.7001 8.40444 26.6671C8.4179 26.6341 8.42483 26.5986 8.42483 26.5628C8.42483 26.527 8.4179 26.4916 8.40444 26.4585C8.39098 26.4255 8.37126 26.3955 8.34643 26.3704C8.32159 26.3453 8.29214 26.3254 8.25978 26.3121C8.22742 26.2987 8.1928 26.2921 8.15793 26.2926H7.46508ZM31.8421 26.2926C31.8072 26.2921 31.7726 26.2987 31.7402 26.3121C31.7079 26.3254 31.6784 26.3453 31.6536 26.3704C31.6287 26.3955 31.609 26.4255 31.5956 26.4585C31.5821 26.4916 31.5752 26.527 31.5752 26.5628C31.5752 26.5986 31.5821 26.6341 31.5956 26.6671C31.609 26.7001 31.6287 26.7301 31.6536 26.7552C31.6784 26.7803 31.7079 26.8002 31.7402 26.8135C31.7726 26.8269 31.8072 26.8335 31.8421 26.833H32.5349C33.1004 26.833 33.6008 27.2012 33.7818 27.7511L35.3741 32.593C35.3848 32.6272 35.4019 32.6589 35.4246 32.6862C35.4473 32.7135 35.475 32.7358 35.5062 32.752C35.5374 32.7682 35.5714 32.7778 35.6062 32.7804C35.6411 32.7829 35.6761 32.7783 35.7092 32.7668C35.7423 32.7553 35.7728 32.7372 35.799 32.7134C35.8252 32.6897 35.8465 32.6609 35.8617 32.6286C35.877 32.5963 35.8858 32.5612 35.8877 32.5254C35.8895 32.4896 35.8845 32.4537 35.8727 32.42L34.2804 27.5791C34.0278 26.8117 33.3242 26.2926 32.5349 26.2926H31.8421ZM8.9474 29.5347H9.47371V31.696H8.9474C8.36498 31.696 7.89477 31.2133 7.89477 30.6153C7.89477 30.0174 8.36498 29.5347 8.9474 29.5347ZM30.5263 29.5347H31.0526C31.635 29.5347 32.1052 30.0174 32.1052 30.6153C32.1052 31.2133 31.635 31.696 31.0526 31.696H30.5263V29.5347ZM25.5263 34.3977C25.4914 34.3972 25.4568 34.4038 25.4244 34.4171C25.3921 34.4305 25.3626 34.4503 25.3378 34.4754C25.313 34.5006 25.2932 34.5305 25.2798 34.5636C25.2663 34.5966 25.2594 34.632 25.2594 34.6678C25.2594 34.7037 25.2663 34.7391 25.2798 34.7721C25.2932 34.8052 25.313 34.8351 25.3378 34.8602C25.3626 34.8854 25.3921 34.9052 25.4244 34.9186C25.4568 34.9319 25.4914 34.9385 25.5263 34.938H27.1052C27.1401 34.9385 27.1747 34.9319 27.2071 34.9186C27.2395 34.9052 27.2689 34.8854 27.2937 34.8602C27.3186 34.8351 27.3383 34.8052 27.3518 34.7721C27.3652 34.7391 27.3721 34.7037 27.3721 34.6678C27.3721 34.632 27.3652 34.5966 27.3518 34.5636C27.3383 34.5305 27.3186 34.5006 27.2937 34.4754C27.2689 34.4503 27.2395 34.4305 27.2071 34.4171C27.1747 34.4038 27.1401 34.3972 27.1052 34.3977H25.5263ZM28.6842 34.3977C28.6493 34.3972 28.6147 34.4038 28.5823 34.4171C28.55 34.4305 28.5205 34.4503 28.4957 34.4754C28.4709 34.5006 28.4511 34.5305 28.4377 34.5636C28.4242 34.5966 28.4173 34.632 28.4173 34.6678C28.4173 34.7037 28.4242 34.7391 28.4377 34.7721C28.4511 34.8052 28.4709 34.8351 28.4957 34.8602C28.5205 34.8854 28.55 34.9052 28.5823 34.9186C28.6147 34.9319 28.6493 34.9385 28.6842 34.938H29.2105C29.2454 34.9385 29.28 34.9319 29.3124 34.9186C29.3447 34.9052 29.3742 34.8854 29.399 34.8602C29.4238 34.8351 29.4436 34.8052 29.457 34.7721C29.4705 34.7391 29.4774 34.7037 29.4774 34.6678C29.4774 34.632 29.4705 34.5966 29.457 34.5636C29.4436 34.5305 29.4238 34.5006 29.399 34.4754C29.3742 34.4503 29.3447 34.4305 29.3124 34.4171C29.28 34.4038 29.2454 34.3972 29.2105 34.3977H28.6842Z" fill="white"/>
</svg>
